<svg width="40" height="40" viewBox="0 0 40 40" fill="none" xmlns="http://www.w3.org/2000/svg">
<path fill-rule="evenodd" clip-rule="evenodd" d="M32.5879 19.94C31.9081 21.18 30.5886 22 29.0892 22H14.1947L11.9955 26H35.9866V30H11.9955C8.95667 30 7.03739 26.74 8.49684 24.06L11.1958 19.18L3.99852 4H0V0H6.53757L8.41687 4H38.0059C39.5253 4 40.485 5.64 39.7452 6.96L32.5879 19.94ZM34.6071 8H10.3161L15.0543 18H29.0891L34.6071 8ZM11.9956 32C9.79644 32 8.0171 33.8 8.0171 36C8.0171 38.2 9.79644 40 11.9956 40C14.1948 40 15.9941 38.2 15.9941 36C15.9941 33.8 14.1948 32 11.9956 32ZM28.0096 36C28.0096 33.8 29.7889 32 31.9881 32C34.1873 32 35.9866 33.8 35.9866 36C35.9866 38.2 34.1873 40 31.9881 40C29.7889 40 28.0096 38.2 28.0096 36Z" fill="white"/>
</svg>
