<svg width="40" height="40" viewBox="0 0 40 40" fill="none" xmlns="http://www.w3.org/2000/svg">
<path d="M28.2044 30.625V33.75C28.2044 37.1964 25.4006 40 21.9541 40H6.25027C2.80377 40 0 37.1964 0 33.75V6.25C0 2.80365 2.80377 0 6.25027 0H21.9541C25.4006 0 28.2044 2.80365 28.2044 6.25V9.375C28.2044 10.238 27.5049 10.9375 26.6418 10.9375C25.7787 10.9375 25.0792 10.238 25.0792 9.375V6.25C25.0792 4.52698 23.6772 3.125 21.9541 3.125H6.25027C4.52718 3.125 3.12514 4.52698 3.12514 6.25V33.75C3.12514 35.473 4.52718 36.875 6.25027 36.875H21.9541C23.6772 36.875 25.0792 35.473 25.0792 33.75V30.625C25.0792 29.762 25.7787 29.0625 26.6418 29.0625C27.5049 29.0625 28.2044 29.762 28.2044 30.625ZM38.8576 17.316L35.3586 13.8171C34.7482 13.2068 33.7588 13.2068 33.1487 13.8171C32.5384 14.4272 32.5384 15.4166 33.1487 16.0266L35.6376 18.5156H16.8757C16.0127 18.5156 15.3132 19.2151 15.3132 20.0781C15.3132 20.9412 16.0127 21.6406 16.8757 21.6406H35.6376L33.1487 24.1296C32.5384 24.7397 32.5384 25.7291 33.1487 26.3391C33.4539 26.6443 33.8537 26.7969 34.2535 26.7969C34.6536 26.7969 35.0534 26.6443 35.3586 26.3391L38.8576 22.8403C40.3808 21.3171 40.3808 18.8391 38.8576 17.316Z" fill="white"/>
</svg>
