<svg width="40" height="40" viewBox="0 0 40 40" fill="none" xmlns="http://www.w3.org/2000/svg">
<path d="M38.9255 17.3981L38.9228 17.3953L22.6043 1.0791C21.9087 0.383301 20.9839 0 20.0002 0C19.0166 0 18.0918 0.382996 17.3959 1.0788L1.08597 17.3868C1.08047 17.3923 1.07498 17.3981 1.06949 17.4036C-0.358882 18.84 -0.356441 21.1707 1.07651 22.6035C1.73117 23.2584 2.59583 23.6377 3.5203 23.6774C3.55784 23.681 3.59568 23.6829 3.63383 23.6829H4.28423V35.6906C4.28423 38.0667 6.21772 40 8.59467 40H14.979C15.626 40 16.151 39.4754 16.151 38.8281V29.4141C16.151 28.3298 17.033 27.4478 18.1174 27.4478H21.8831C22.9675 27.4478 23.8495 28.3298 23.8495 29.4141V38.8281C23.8495 39.4754 24.3742 40 25.0215 40H31.4058C33.7828 40 35.7163 38.0667 35.7163 35.6906V23.6829H36.3194C37.3027 23.6829 38.2275 23.2999 38.9237 22.6041C40.3582 21.1688 40.3588 18.8342 38.9255 17.3981Z" fill="white"/>
</svg>
