<svg width="48" height="42" viewBox="0 0 48 42" fill="none" xmlns="http://www.w3.org/2000/svg">
<path d="M13.2887 25.2236C11.4114 24.5836 9.70473 23.9436 8.16873 23.3036C6.63273 22.6209 5.31006 21.8102 4.20073 20.8716C3.09139 19.9329 2.21673 18.8236 1.57673 17.5436C0.979394 16.2209 0.680728 14.6209 0.680728 12.7436C0.680728 9.11688 2.06739 6.21555 4.84073 4.03955C7.65673 1.86355 11.5821 0.775551 16.6167 0.775551C18.4514 0.775551 20.1581 0.90355 21.7367 1.15955C23.3154 1.41555 24.6594 1.82088 25.7687 2.37555C26.9207 2.88755 27.8167 3.57022 28.4567 4.42355C29.0967 5.23422 29.4167 6.19422 29.4167 7.30355C29.4167 8.41288 29.1607 9.37288 28.6487 10.1836C28.1367 10.9516 27.5181 11.6129 26.7927 12.1676C25.8541 11.5702 24.5954 11.0582 23.0167 10.6316C21.4381 10.1622 19.7101 9.92755 17.8327 9.92755C15.9127 9.92755 14.5047 10.2049 13.6087 10.7596C12.7127 11.2716 12.2647 11.9329 12.2647 12.7436C12.2647 13.3836 12.5421 13.9169 13.0967 14.3436C13.6514 14.7276 14.4834 15.0902 15.5927 15.4316L18.9847 16.5196C22.9954 17.7996 26.0674 19.4422 28.2007 21.4476C30.3767 23.4102 31.4647 26.0982 31.4647 29.5116C31.4647 33.1382 30.0354 36.0822 27.1767 38.3436C24.3181 40.5622 20.1154 41.6716 14.5687 41.6716C12.6061 41.6716 10.7714 41.5009 9.06473 41.1596C7.40073 40.8609 5.92873 40.4129 4.64873 39.8156C3.41139 39.1756 2.43006 38.4076 1.70473 37.5116C1.02206 36.5729 0.680728 35.5062 0.680728 34.3116C0.680728 33.0742 1.04339 32.0289 1.76873 31.1756C2.49406 30.2796 3.28339 29.5969 4.13673 29.1276C5.33139 30.0662 6.78206 30.8769 8.48873 31.5596C10.2381 32.2422 12.1367 32.5836 14.1847 32.5836C16.2754 32.5836 17.7474 32.2636 18.6007 31.6236C19.4541 30.9836 19.8807 30.2369 19.8807 29.3836C19.8807 28.5302 19.5394 27.8902 18.8567 27.4636C18.1741 26.9942 17.2141 26.5462 15.9767 26.1196L13.2887 25.2236ZM34.7787 35.4636C34.7787 33.6716 35.3334 32.1782 36.4427 30.9836C37.5521 29.7889 39.0667 29.1916 40.9867 29.1916C42.9067 29.1916 44.4214 29.7889 45.5307 30.9836C46.6401 32.1782 47.1947 33.6716 47.1947 35.4636C47.1947 37.2556 46.6401 38.7489 45.5307 39.9436C44.4214 41.1382 42.9067 41.7356 40.9867 41.7356C39.0667 41.7356 37.5521 41.1382 36.4427 39.9436C35.3334 38.7489 34.7787 37.2556 34.7787 35.4636Z" fill="#F1D5BB"/>
</svg>
