<svg width="35" height="40" viewBox="0 0 35 40" fill="none" xmlns="http://www.w3.org/2000/svg">
<path fill-rule="evenodd" clip-rule="evenodd" d="M17.5 0C7.825 0 0 6.26 0 14C0 24.5 17.5 40 17.5 40C17.5 40 35 24.5 35 14C35 6.26 27.175 0 17.5 0ZM4.99989 14C4.99989 8.48 10.5999 4 17.4999 4C24.3999 4 29.9999 8.48 29.9999 14C29.9999 19.76 22.7999 28.38 17.4999 33.76C12.2999 28.42 4.99989 19.7 4.99989 14ZM11.2501 14C11.2501 11.2386 14.0483 9 17.5001 9C19.733 9 21.7963 9.95299 22.9127 11.5C24.0292 13.047 24.0292 14.953 22.9127 16.5C21.7963 18.047 19.733 19 17.5001 19C14.0483 19 11.2501 16.7614 11.2501 14Z" fill="white"/>
</svg>
